<svg xmlns="http://www.w3.org/2000/svg" viewBox="0 0 1055.9 181"><path d="M439.3 137.6H66.2c-31.5.1-50.7-21.1-50.7-47.2s19.3-47.1 50.7-47.2h373.1c31.4.1 50.7 21.1 50.7 47.2s-19.1 47.3-50.7 47.2zm.2-109.6H66C26.6 27.9 0 56.4 0 90.6s26.5 62.3 66.1 62.4h373.4c39.7 0 66.1-28.2 66.1-62.4S479.1 27.9 439.5 28zm19.7 49.8c-4 0-7.3-3.3-7.3-7.3 0-4.1 3.3-7.4 7.3-7.4s7.3 3.3 7.3 7.4c0 4-3.3 7.3-7.3 7.3zm0-16.4c-5 0-9.1 4.1-9.1 9.1s4.1 9.1 9.1 9.1 9-4.1 9-9.1-4-9.1-9-9.1zm-.1 8.4h-1.2v-2.9h1.1c1.5 0 2.2.5 2.2 1.5s-.7 1.4-2.1 1.4zm4.6-1.6c0-1.9-1.4-2.9-4.3-2.9h-3.9v10.1h2.4v-4.1h1.2l1.9 4.1h2.7l-2.2-4.5c1.4-.4 2.2-1.3 2.2-2.7zM255.2 86.7c1.4-2.4 3.9-3.5 6.2-3.6 2.3 0 4.8 1.2 6.2 3.6 1.1 2 1.2 4.3 1.1 7.7H254c0-3.6.1-5.8 1.2-7.7zm32.1 13.6c0-12.2-11.7-22.2-26.1-22.2-14.3 0-26 9.8-26 22 0 12.1 11.6 22 26 22 11.9 0 22-6.8 25.1-16.1h-17.6v2.4c0 7.2-4.7 8.7-7.3 8.7s-7.4-1.6-7.4-8.7v-8.1s33.3.1 33.3 0zm36.8-21.4c-5.9.2-10.7 2.7-14.1 5.9v-4.1h-17.5v39.2H310V94.2c0-3.4 3.6-7.2 8.4-7.2s8.1 3.8 8.1 7.2v25.7H344V98.6c.1-15.6-13.3-19.9-19.9-19.7zm-143.2 0c-5.8.2-10.7 2.7-14.1 5.9v-4.1h-17.5v39.2h17.5V94.2c0-3.4 3.6-7.2 8.4-7.2 4.8 0 8.1 3.8 8.1 7.2v25.7h17.6V98.6c-.1-15.6-13.5-19.9-20-19.7zM382.2 100v7c0 6-4.2 7.6-6.9 7.6-2.8 0-6.9-1.6-6.9-7.6V93c0-6.1 4.1-7.6 6.9-7.6 2.7 0 6.9 1.5 6.9 7.6v7zm-.2-17.4c-2.8-1.6-5.8-3.1-10-3.5-12.7-1.1-22.4 10.2-22.4 20.5 0 13.6 10.5 18.7 12.1 19.4 6 2.8 13.6 2.8 20.3-1.5v2.3h17.4V61H382v21.6zm56 25.6c0 6.2-3.7 8.8-7.2 8.8s-7.2-2.6-7.2-8.8V91.6c0-6.2 3.7-8.8 7.2-8.8s7.2 2.6 7.2 8.8v16.6zM431 78c-14.2 0-25.8 9.8-25.8 22s11.6 22 25.8 22c14.2 0 25.8-9.8 25.8-22-.1-12.1-11.7-22-25.8-22zm-309.1-5h17.7V61h-17.7v12zm0 46.8h17.6V80.7h-17.6v39.1zm115.7-39V75H228v-7.9h-17.7V75h-9.5v5.8h9.6v39.1h17.7V80.8h9.5zM93.7 101.9L68.4 61H50.2v58.9h18.2V78.8l25.4 41.1h18.1V61H93.7v40.9zM585.5 181c-1.8 0-3.2-1.4-3.2-3.2V3.2c0-1.8 1.4-3.2 3.2-3.2s3.2 1.4 3.2 3.2v174.6c0 1.8-1.5 3.2-3.2 3.2m93.2-61.2h39.2v9.3h-49.7V54h48.1v9.2h-37.6v22.5h35.4v9h-35.4v25.1zm67.4-34.1h3.3c2.1 0 4.2-.2 6.2-.6 2-.4 3.8-1.1 5.4-2 1.6-1 2.8-2.3 3.8-3.9s1.4-3.7 1.4-6.1c0-1.9-.4-3.6-1.1-5.2-.7-1.5-1.7-2.8-2.9-3.9s-2.6-1.9-4.2-2.5c-1.6-.6-3.3-.9-5-.9-3.2 0-5.9.8-8.1 2.4-2.2 1.6-3.9 3.9-5 6.8l-9.3-3.3c1.8-4.5 4.8-8.1 8.9-10.7 4.1-2.6 8.7-3.9 14-3.9 3.1 0 6.1.4 8.8 1.3 2.8.9 5.2 2.2 7.3 3.9 2.1 1.7 3.8 3.8 5 6.4s1.8 5.5 1.8 8.8c0 2.1-.3 4.1-1 5.9-.7 1.8-1.6 3.5-2.8 5-1.2 1.5-2.6 2.8-4.2 3.8-1.6 1.1-3.4 1.8-5.3 2.3v.2c2.2.4 4.2 1.2 6.1 2.2 1.9 1.1 3.5 2.4 4.8 4 1.3 1.6 2.4 3.4 3.2 5.5.8 2 1.2 4.3 1.2 6.7 0 3.7-.7 7-2.1 9.9-1.4 2.9-3.3 5.2-5.6 7.1-2.3 1.9-5 3.4-8 4.3-3 1-6.1 1.5-9.3 1.5-5.9 0-11.2-1.3-15.7-4s-7.8-6.9-9.9-12.5l9.5-3.2c1.1 3.3 3.1 5.9 5.8 8 2.7 2 6.1 3.1 10 3.1 1.9 0 3.8-.3 5.6-.9 1.8-.6 3.4-1.5 4.8-2.7 1.4-1.2 2.5-2.7 3.4-4.5.8-1.8 1.3-3.9 1.3-6.3 0-2.6-.6-4.8-1.7-6.6-1.1-1.8-2.6-3.2-4.4-4.3-1.8-1.1-3.8-1.9-6.1-2.3-2.3-.5-4.5-.7-6.7-.7h-3.2v-8.1zm123.8 43.4h-49v-9.9l29.9-29.7c2.3-2.3 4.2-4.8 5.8-7.3 1.6-2.5 2.4-5.4 2.4-8.6 0-2-.4-3.8-1.1-5.4-.7-1.6-1.7-2.9-2.9-4.1-1.2-1.1-2.6-2-4.2-2.6-1.6-.6-3.4-.9-5.2-.9-3.8 0-7 1.2-9.4 3.7-2.5 2.4-4 5.6-4.7 9.4L821.4 72c.4-2.8 1.3-5.5 2.7-7.9s3.1-4.6 5.2-6.4c2.1-1.8 4.6-3.2 7.4-4.2 2.8-1 5.8-1.5 9-1.5 3.1 0 6.1.5 9 1.4 2.9.9 5.4 2.3 7.6 4 2.2 1.8 3.9 4 5.2 6.7 1.3 2.7 2 5.8 2 9.2 0 2.4-.3 4.6-1 6.7-.6 2.1-1.5 4-2.6 5.8-1.1 1.8-2.4 3.6-3.9 5.2-1.5 1.7-3 3.3-4.7 4.9l-24.4 23.7h36.8v9.5zm40.1-77c4.5 0 8.3 1 11.5 3.1 3.2 2.1 5.9 4.9 8 8.4 2.1 3.6 3.6 7.8 4.6 12.6 1 4.8 1.5 9.9 1.5 15.4s-.5 10.7-1.5 15.4c-1 4.8-2.5 8.9-4.6 12.5-2.1 3.6-4.7 6.4-8 8.4-3.2 2-7 3.1-11.5 3.1s-8.3-1-11.6-3.1c-3.3-2-5.9-4.9-8-8.4-2.1-3.6-3.6-7.7-4.6-12.5-1-4.8-1.5-9.9-1.5-15.4 0-5.4.5-10.6 1.5-15.4 1-4.8 2.5-9 4.6-12.6 2.1-3.6 4.8-6.4 8-8.4 3.3-2 7.1-3.1 11.6-3.1zm0 8.6c-3.1 0-5.7 1-7.6 3-2 2-3.5 4.6-4.6 7.6-1.1 3.1-1.9 6.4-2.3 10-.4 3.6-.6 7-.6 10.2 0 3.2.2 6.6.6 10.2.4 3.6 1.2 6.9 2.3 10 1.1 3 2.6 5.6 4.6 7.6 2 2 4.5 3 7.6 3 3 0 5.5-1 7.5-3 1.9-2 3.5-4.5 4.6-7.6 1.1-3 1.9-6.4 2.3-10 .4-3.6.6-7 .6-10.2 0-3.2-.2-6.6-.6-10.2s-1.2-6.9-2.3-10c-1.1-3.1-2.7-5.6-4.6-7.6-2-2-4.5-3-7.5-3zm69.1 68.4h-10.2V66.6l-14.2 11.9-6-7.1L970 54h9.1v75.1zm54.9-30.3l-.1-.1c-1.1.6-2.5 1.1-4.3 1.5-.8.1-1.7.3-2.6.4-.9.1-1.7.2-2.5.2-3.3 0-6.4-.6-9.2-1.7-2.8-1.2-5.3-2.8-7.4-4.9-2.1-2.1-3.8-4.6-5-7.5-1.2-2.9-1.8-6-1.8-9.4 0-3.7.7-7.2 2-10.2 1.3-3.1 3.1-5.7 5.4-7.9 2.3-2.2 5.1-3.9 8.3-5.1 3.2-1.2 6.6-1.8 10.3-1.8s7.1.6 10.3 1.9c3.2 1.2 5.9 3 8.2 5.1 2.3 2.2 4.1 4.8 5.4 7.8 1.3 3 2 6.3 2 9.9 0 4.1-.7 7.8-2 11.1s-3.1 6.7-5.2 10.2l-19.6 31H1014l20-30.5zm8.7-22.1c0-2.2-.4-4.3-1.1-6.2-.7-1.9-1.8-3.6-3.2-5.1-1.4-1.4-3-2.6-4.9-3.4-1.9-.8-4-1.3-6.4-1.3s-4.5.4-6.4 1.2c-1.9.8-3.6 1.9-4.9 3.3-1.4 1.4-2.4 3.1-3.2 5.1-.7 2-1.1 4.1-1.1 6.5 0 2.3.4 4.3 1.1 6.3.7 1.9 1.8 3.6 3.1 5s3 2.5 4.9 3.3c1.9.8 4 1.2 6.4 1.2s4.5-.4 6.4-1.2c1.9-.8 3.6-1.9 5-3.3s2.4-3.1 3.2-5c.7-1.9 1.1-4 1.1-6.4z" fill="#fff"/></svg>