<?xml version="1.0" encoding="UTF-8" standalone="no"?>
<svg width="578" height="65" xmlns="http://www.w3.org/2000/svg" viewBox="0 0 578 65"><path d="M155.597 48.56H23.463c-11.158.044-17.936-7.473-17.936-16.695 0-9.224 6.82-16.675 17.936-16.7h132.134c11.112.025 17.931 7.476 17.931 16.7 0 9.222-6.776 16.74-17.93 16.695zm.059-38.84H23.396C9.402 9.686 0 19.786 0 31.895c0 12.107 9.38 22.091 23.422 22.097h132.213c14.047-.006 23.42-9.99 23.42-22.102 0-12.104-9.4-22.204-23.4-22.172zm6.97 17.64a2.586 2.586 0 0 1-2.589-2.585c0-1.437 1.158-2.6 2.589-2.6a2.592 2.592 0 0 1 2.584 2.6 2.585 2.585 0 0 1-2.584 2.585zm0-5.8a3.214 3.214 0 0 0-3.205 3.215 3.208 3.208 0 0 0 3.205 3.205 3.197 3.197 0 0 0 3.19-3.205c0-1.773-1.426-3.215-3.19-3.215zm-.028 2.968h-.423v-1.034h.377c.517 0 .774.162.774.531 0 .355-.236.503-.728.503zm1.616-.554c0-.682-.5-1.028-1.507-1.028h-1.392v3.557h.86V25.05h.423l.678 1.452h.958l-.794-1.585c.489-.13.774-.477.774-.944zM90.36 30.489c.49-.852 1.384-1.253 2.195-1.262.815.01 1.708.41 2.202 1.262.391.698.412 1.511.402 2.722h-5.211c-.009-1.21.015-2.024.412-2.722zm11.356 4.883c0-4.3-4.136-7.859-9.218-7.859-5.074 0-9.194 3.48-9.194 7.78 0 4.298 4.12 7.781 9.194 7.781 4.217 0 7.779-2.415 8.865-5.683l-6.228.004s.009.06.009.838c0 2.536-1.664 3.094-2.589 3.094-.924 0-2.61-.558-2.61-3.094 0-.758.007-2.861.007-2.861s11.764.005 11.764 0zm13.071-7.63c-2.07.06-3.787.95-4.983 2.09-.009-.346 0-1.457 0-1.457l-6.195.005-.004 13.855h6.2l-.01-9.1c0-1.207 1.268-2.551 2.969-2.551 1.7 0 2.851 1.344 2.851 2.55v9.1h6.205s-.007-6.562 0-7.537c.031-5.487-4.7-7.022-7.033-6.956zm-50.75 0a7.518 7.518 0 0 0-4.981 2.092c-.01-.348 0-1.46 0-1.46l-6.206.006.009 13.856h6.197l-.01-9.102c0-1.206 1.267-2.55 2.965-2.55 1.7 0 2.852 1.344 2.852 2.55v9.102h6.21s-.006-6.563 0-7.539c.034-5.487-4.703-7.022-7.036-6.956zm71.29 7.5v2.46c0 2.14-1.476 2.696-2.448 2.696-.994 0-2.447-.555-2.447-2.695v-4.94c0-2.147 1.453-2.689 2.447-2.689.972 0 2.446.542 2.446 2.69l.003 2.478zm-.046-6.177c-.997-.56-2.05-1.106-3.532-1.235-4.504-.397-7.937 3.598-7.937 7.257 0 4.822 3.705 6.607 4.267 6.87 2.107.986 4.797.989 7.187-.518l.001.8h6.172v-20.84h-6.158v7.666zm19.822 9.07c0 2.209-1.298 3.117-2.547 3.117-1.253 0-2.556-.908-2.556-3.118v-2.988l.001-2.886c0-2.202 1.306-3.112 2.555-3.112 1.243 0 2.547.91 2.547 3.112 0 .833 0 2.39.01 2.944 0 .038-.01 2.095-.01 2.93zm-2.499-10.697c-5.04 0-9.13 3.48-9.13 7.776 0 4.302 4.09 7.782 9.13 7.782 5.04 0 9.124-3.48 9.124-7.782 0-4.296-4.083-7.776-9.124-7.776zM43.158 25.653h6.258V21.39h-6.258v4.262zm.016 16.59h6.242V28.385l-6.242-.005v13.863zm40.96-13.835V26.35h-3.385v-2.805H74.5l.005 2.807h-3.398v2.057h3.396L74.5 42.243h6.26l-.012-13.835h3.385zm-50.947 7.525L24.232 21.4h-6.467l-.003 20.843h6.43V27.71l8.997 14.534h6.413V21.4h-6.427l.012 14.533zM207.236 64.62a1.127 1.127 0 0 1-1.124-1.129V1.841c0-.622.503-1.127 1.124-1.127.62 0 1.124.505 1.124 1.128v61.65c0 .622-.504 1.127-1.124 1.127m29.642-45.117h17.4v4.096h-12.725V30.3h12.057v3.947h-12.057v7.448h13.393v4.17h-18.068zm28.035 10.946h1.187c2.634 0 5.602-.71 5.602-3.791 0-2.268-1.93-3.614-4.155-3.614-2.153 0-3.673 1.31-4.193 3.224l-4.192-1.028c.927-3.366 4.377-5.739 8.57-5.739 4.601 0 8.459 2.373 8.459 6.872 0 2.694-1.855 4.998-4.712 5.67v.07c3.19.603 5.416 2.942 5.416 6.024 0 5.209-4.712 7.724-9.164 7.724-4.415 0-8.124-1.735-9.534-5.917l4.155-1.24c.631 1.984 2.45 3.544 5.231 3.544 2.301 0 4.822-1.135 4.822-4.146 0-3.26-3.598-4.25-6.38-4.25h-1.112v-3.403zm27.634 11.418l10.128-9.73c1.633-1.562 2.672-3.05 2.672-5.048 0-2.396-1.82-3.957-4.194-3.957-2.522 0-4.117 1.89-4.451 4.394l-4.34-.653c.52-4.25 4.043-7.372 8.866-7.372 4.564 0 8.756 2.578 8.756 7.517 0 3.304-1.891 5.59-4.229 7.77l-7.569 7.08h11.835v3.993h-17.474v-3.994zm31.243-18.823c-4.005 0-4.748 6.13-4.748 9.637 0 3.508.743 9.567 4.748 9.567 3.97 0 4.675-6.06 4.675-9.567 0-3.508-.705-9.637-4.675-9.637m0 22.817c-5.973 0-9.313-5.066-9.313-13.18s3.34-13.18 9.313-13.18c5.936 0 9.239 5.066 9.239 13.18s-3.303 13.18-9.239 13.18m20.922-20.922l-5.195 4.283-2.597-3.091 8.2-6.627h4.044v26.362h-4.452zm19.812-5.438c4.378 0 7.908 2.551 7.908 6.803 0 2.905-1.624 4.924-3.883 5.668v.071c2.612.638 4.695 3.012 4.695 6.094 0 4.996-3.919 7.724-8.72 7.724-4.8 0-8.719-2.728-8.719-7.724 0-3.26 2.26-5.456 4.695-6.094v-.07c-2.224-.815-3.883-2.587-3.883-5.492 0-4.252 3.53-6.98 7.907-6.98zm0 3.508c-2.082 0-3.6 1.381-3.6 3.543 0 2.02 1.412 3.649 3.6 3.649a3.637 3.637 0 0 0 3.636-3.65c0-2.16-1.73-3.542-3.636-3.542zm0 10.806c-2.435 0-4.341 1.736-4.341 4.287 0 2.622 1.87 4.18 4.341 4.18 2.436 0 4.307-1.558 4.307-4.18 0-2.48-1.906-4.287-4.307-4.287zm37.12 7.099c.203 1.069.679 1.966 1.427 2.692.748.725 1.731 1.088 2.949 1.088.938 0 1.712-.172 2.32-.515a4.057 4.057 0 0 0 1.466-1.394 5.68 5.68 0 0 0 .76-2.005c.14-.751.21-1.534.21-2.349V19.375h2.74V38.62c0 .891-.096 1.833-.286 2.826a7.843 7.843 0 0 1-1.084 2.75c-.533.84-1.269 1.534-2.207 2.081-.939.547-2.144.821-3.615.821-1.953 0-3.564-.516-4.832-1.547-1.268-1.03-2.067-2.348-2.397-3.952l2.55-.687zm29.978 5.499a34.702 34.702 0 0 1-.152-3.055h-.077c-.507 1.043-1.331 1.89-2.473 2.54a7.202 7.202 0 0 1-3.614.973c-2.258 0-3.95-.675-5.08-2.024-1.128-1.35-1.693-3.131-1.693-5.346V28.54h2.588v9.89c0 .942.076 1.795.228 2.559.152.764.412 1.42.78 1.967.368.547.862.973 1.484 1.279.621.305 1.401.458 2.34.458.685 0 1.35-.14 1.997-.42a4.909 4.909 0 0 0 1.731-1.28c.508-.572.913-1.298 1.218-2.176.304-.878.456-1.916.456-3.112V28.54h2.588v13.938c0 .484.012 1.108.038 1.871.025.764.063 1.452.114 2.063h-2.473zM440.7 28.54a34.702 34.702 0 0 1 .152 3.055h.077c.507-1.044 1.331-1.89 2.473-2.54a7.202 7.202 0 0 1 3.614-.973c2.258 0 3.951.674 5.08 2.024 1.128 1.349 1.693 3.13 1.693 5.346v10.96h-2.587v-9.89c0-.943-.077-1.796-.229-2.56-.152-.763-.412-1.419-.78-1.966a3.733 3.733 0 0 0-1.484-1.28c-.621-.305-1.4-.458-2.34-.458-.684 0-1.35.14-1.997.42a4.909 4.909 0 0 0-1.731 1.28c-.507.572-.913 1.298-1.218 2.176-.304.879-.456 1.916-.456 3.113v9.165h-2.587V32.473c0-.484-.013-1.107-.039-1.871a41.983 41.983 0 0 0-.114-2.062h2.473zm31.766 7.561c-.076-1.68-.615-3.074-1.617-4.182-1.002-1.107-2.429-1.66-4.28-1.66-.863 0-1.662.158-2.397.477a6.338 6.338 0 0 0-1.94 1.298 6.455 6.455 0 0 0-1.332 1.871c-.33.7-.52 1.432-.571 2.196h12.137zm2.625.84v.573c0 .204-.012.42-.038.65h-14.762c.025.89.203 1.73.532 2.52.33.789.787 1.476 1.37 2.062a6.6 6.6 0 0 0 2.055 1.393 6.295 6.295 0 0 0 2.549.516c1.344 0 2.505-.312 3.481-.936.977-.623 1.719-1.343 2.226-2.157l1.94 1.527c-1.065 1.35-2.238 2.317-3.519 2.903a9.81 9.81 0 0 1-4.128.878c-1.32 0-2.543-.236-3.672-.707a8.599 8.599 0 0 1-2.91-1.966 9.32 9.32 0 0 1-1.922-2.979c-.469-1.146-.704-2.393-.704-3.742 0-1.35.229-2.597.685-3.743a9.064 9.064 0 0 1 1.903-2.978 8.747 8.747 0 0 1 2.853-1.967c1.09-.47 2.27-.706 3.539-.706 1.395 0 2.625.235 3.69.706 1.066.471 1.953 1.108 2.664 1.91a8.21 8.21 0 0 1 1.617 2.806 10.52 10.52 0 0 1 .551 3.437zm22.06 9.47h-2.74V22.775l-4.87 4.162-1.674-1.91 6.849-5.651h2.435v27.037zm24.4 0h-17.235v-2.863l11.034-11.19c.406-.407.805-.846 1.199-1.317.393-.47.742-.96 1.046-1.47a7.45 7.45 0 0 0 .723-1.623 5.963 5.963 0 0 0 .266-1.776c0-.789-.14-1.502-.418-2.138a4.686 4.686 0 0 0-1.16-1.623 5.31 5.31 0 0 0-1.713-1.031 5.764 5.764 0 0 0-2.035-.363c-1.446 0-2.664.452-3.653 1.356-.99.903-1.623 2.055-1.902 3.456L505 25.294a7.83 7.83 0 0 1 1.008-2.635 8.064 8.064 0 0 1 1.827-2.1 8.429 8.429 0 0 1 2.454-1.375c.913-.331 1.902-.497 2.968-.497 1.09 0 2.124.16 3.1.478a7.527 7.527 0 0 1 2.569 1.413 6.915 6.915 0 0 1 1.769 2.33c.444.928.666 2.004.666 3.226a7.68 7.68 0 0 1-.362 2.406 10.447 10.447 0 0 1-.951 2.1 12.244 12.244 0 0 1-1.389 1.89 43.5 43.5 0 0 1-1.674 1.776l-9.702 9.662h14.268v2.444zm18.385-8.484H527V35.75h12.936v2.177zm11.729 8.61h-2.74V22.899l-4.87 4.162-1.674-1.91 6.849-5.651h2.435v27.037zm22.286-9.061h3.957v2.406h-3.957v6.53h-2.663v-6.53H558.96v-2.674l11.414-17.833h3.577v18.1zm-2.663-15.008h-.077l-9.397 15.008h9.474V22.468z" fill="#FFF" fill-rule="evenodd"></path></svg>