<?xml version="1.0" encoding="UTF-8" standalone="no"?>
<svg
   xmlns:dc="http://purl.org/dc/elements/1.1/"
   xmlns:cc="http://creativecommons.org/ns#"
   xmlns:rdf="http://www.w3.org/1999/02/22-rdf-syntax-ns#"
   xmlns:svg="http://www.w3.org/2000/svg"
   xmlns="http://www.w3.org/2000/svg"
   xmlns:sodipodi="http://sodipodi.sourceforge.net/DTD/sodipodi-0.dtd"
   xmlns:inkscape="http://www.inkscape.org/namespaces/inkscape"
   viewBox="0 0 799 90"
   version="1.1"
   style="overflow:hidden;"
   id="svg32"
   sodipodi:docname="logo.svg"
   inkscape:version="0.92.1 r">
  <metadata
     id="metadata38">
    <rdf:RDF>
      <cc:Work
         rdf:about="">
        <dc:format>image/svg+xml</dc:format>
        <dc:type
           rdf:resource="http://purl.org/dc/dcmitype/StillImage" />
      </cc:Work>
    </rdf:RDF>
  </metadata>
  <defs
     id="defs36" />
  <sodipodi:namedview
     pagecolor="#ffffff"
     bordercolor="#666666"
     borderopacity="1"
     objecttolerance="10"
     gridtolerance="10"
     guidetolerance="10"
     inkscape:pageopacity="0"
     inkscape:pageshadow="2"
     inkscape:window-width="1920"
     inkscape:window-height="1019"
     id="namedview34"
     showgrid="false"
     inkscape:zoom="5.2692981"
     inkscape:cx="592.19059"
     inkscape:cy="19.480206"
     inkscape:window-x="1920"
     inkscape:window-y="0"
     inkscape:window-maximized="1"
     inkscape:current-layer="svg32" />
  <g
     transform="translate(-398,-48)"
     id="0-HEADER-b"
     style="fill:#ffffff;fill-rule:evenodd;stroke:none;stroke-width:1">
    <g
       id="E3-LOGO-header"
       transform="translate(400,44)">
      <g
         id="e3-text">
        <g
           id="e3-text-transform">
          <g
             id="June-13-15"
             transform="translate(552.57732,25.742268)">
            <path
               d="m 3.942268,30.962062 c 0.5731959,2.868041 2.7092784,5.162887 5.9958763,5.162887 5.1608247,0 6.5154637,-4.119588 6.5154637,-8.550516 V 1.56 h 3.754639 v 26.274227 c 0,4.797938 -1.773196,11.573196 -9.853608,11.573196 -5.3175256,0 -9.0185565,-3.127835 -9.90309261,-7.507217 z"
               id="Fill-18"
               inkscape:connector-curvature="0" />
            <path
               d="m 45.306186,38.468454 c -0.105155,-1.303093 -0.21031,-3.127835 -0.21031,-4.169073 h -0.103092 c -1.356702,2.816495 -4.89897,4.795877 -8.340207,4.795877 -6.204123,0 -9.280412,-4.014433 -9.280412,-10.061856 V 14.072577 h 3.54433 V 27.57567 c 0,5.105155 1.513402,8.548454 6.620618,8.548454 3.75464,0 7.402062,-3.024743 7.402062,-9.540207 v -12.51134 h 3.546392 v 19.026804 c 0,1.303093 0.05155,3.701031 0.210309,5.369073 z"
               id="Fill-20"
               inkscape:connector-curvature="0" />
            <path
               d="m 58.87134,14.072577 c 0.105155,1.303093 0.210309,3.127835 0.210309,4.169072 h 0.103093 c 1.356701,-2.814432 4.898969,-4.795876 8.340206,-4.795876 6.204124,0 9.280413,4.014433 9.280413,10.061856 v 14.960825 h -3.54433 V 24.967423 c 0,-5.107217 -1.513402,-8.548454 -6.620619,-8.548454 -3.754639,0 -7.404123,3.02268 -7.404123,9.540206 v 12.509279 h -3.54433 V 19.441649 c 0,-1.303092 -0.05155,-3.70103 -0.210309,-5.369072 z"
               id="Fill-22"
               inkscape:connector-curvature="0" />
            <polygon
               id="Fill-26"
               points="127.26412,11.880825 124.97134,9.276701 134.35485,1.5612371 137.69093,1.5612371 137.69093,38.468454 133.93835,38.468454 133.93835,6.2004124 "
               transform="translate(-29.065756)" />
            <path
               d="m 121.80461,17.270867 h 1.6165 c 4.74433,0 8.60206,-1.876289 8.60206,-6.77732 0,-4.1154635 -3.33608,-6.9319584 -7.29897,-6.9319584 -3.07423,0 -5.57732,1.5113402 -7.03711,4.3257732 L 114.5077,6.2213824 c 2.29279,-3.9628866 5.94227,-5.83917524 10.42681,-5.83917524 5.78557,0 10.78969,3.49072164 10.78969,9.90309284 0,4.327835 -2.76289,7.457731 -6.41031,8.447422 4.22062,0.989691 7.45361,4.325773 7.45361,9.278351 0,7.037113 -5.47423,11.154639 -11.8866,11.154639 -5.36907,0 -9.59175,-2.709278 -11.67835,-7.558763 l 3.54639,-1.303093 c 1.24949,3.494846 4.37938,5.63299 8.13196,5.63299 4.22268,0 8.13402,-2.973196 8.13402,-7.925773 0,-5.57732 -4.74433,-7.507217 -9.59381,-7.507217 h -1.6165 z"
               id="Fill-28"
               inkscape:connector-curvature="0" />
          </g>
          <g
             id="E3-2017"
             transform="translate(331.95876,25.742268)">
            <polygon
               id="Fill-6"
               points="24.401031,22.203711 7.4587629,22.203711 7.4587629,32.630516 26.27732,32.630516 26.27732,38.467629 0.88969072,38.467629 0.88969072,1.5604124 25.339175,1.5604124 25.339175,7.294433 7.4587629,7.294433 7.4587629,16.677938 24.401031,16.677938 " />
            <path
               d="m 40.282474,16.730515 h 1.668042 c 3.70103,0 7.872164,-1.043298 7.872164,-5.577319 0,-3.3360826 -2.71134,-5.3175259 -5.839175,-5.3175259 -3.024742,0 -5.160825,1.927835 -5.890721,4.7443299 L 32.202062,9.0665979 c 1.303093,-4.9525773 6.150515,-8.44329893 12.041237,-8.44329893 6.465979,0 11.886598,3.49072163 11.886598,10.11134003 0,3.962887 -2.606186,7.352577 -6.620619,8.342268 V 19.18 c 4.482475,0.886598 7.61031,4.327835 7.61031,8.861856 0,7.663917 -6.620619,11.364948 -12.876289,11.364948 -6.204124,0 -11.416495,-2.552577 -13.397938,-8.705155 l 5.839175,-1.824742 c 0.886598,2.919588 3.441237,5.214433 7.350516,5.214433 3.232989,0 6.775257,-1.670103 6.775257,-6.101031 0,-4.795876 -5.05567,-6.253608 -8.964948,-6.253608 h -1.562887 z"
               id="Fill-8"
               inkscape:connector-curvature="0" />
            <path
               d="M 79.113402,32.734021 93.34433,18.764948 c 2.294845,-2.243299 3.754639,-4.379381 3.754639,-7.247422 0,-3.4412373 -2.556701,-5.6824745 -5.892783,-5.6824745 -3.54433,0 -5.785567,2.7134021 -6.255671,6.3092785 L 78.851546,11.206186 C 79.583505,5.1051546 84.534021,0.62268041 91.31134,0.62268041 c 6.412371,0 12.30309,3.70103089 12.30309,10.79175259 0,4.74433 -2.65773,8.026804 -5.942265,11.154639 L 87.037113,32.734021 h 16.628867 v 5.73402 H 79.113402 Z"
               id="Fill-10"
               inkscape:connector-curvature="0" />
            <path
               d="m 123.01443,5.8352577 c -5.62886,0 -6.67216,9.0185563 -6.67216,14.1793813 0,5.160825 1.0433,14.076289 6.67216,14.076289 5.57732,0 6.56907,-8.915464 6.56907,-14.076289 0,-5.160825 -0.99175,-14.1793813 -6.56907,-14.1793813 m 0,33.5711343 c -8.39381,0 -13.08659,-7.453609 -13.08659,-19.391753 0,-11.9381441 4.69278,-19.3917524 13.08659,-19.3917524 8.34021,0 12.98145,7.4536083 12.98145,19.3917524 0,11.938144 -4.64124,19.391753 -12.98145,19.391753"
               id="Fill-12"
               inkscape:connector-curvature="0" />
            <polygon
               id="Fill-14"
               points="152.41196,38.468454 152.41196,9.1715464 145.11299,15.167423 141.4635,10.839588 152.98515,1.5612371 158.66763,1.5612371 158.66763,38.468454 " />
            <polygon
               id="Fill-16"
               points="168.10949,7.1892784 168.10949,1.5604124 193.18577,1.5604124 193.18577,7.294433 178.4332,38.467629 171.08062,38.467629 186.6167,7.1892784 " />
          </g>
        </g>
        <rect
           width="295"
           height="100"
           style="fill:#e60012"
           id="rect20"
           x="0"
           y="0" />
        <path
           d="m 291.1965,90.467217 c -0.87217,0 -1.57939,-0.707217 -1.57939,-1.579382 V 2.5785567 c 0,-0.8721649 0.70722,-1.57938144 1.57939,-1.57938144 0.87216,0 1.57938,0.70721654 1.57938,1.57938144 V 88.887835 c 0,0.872165 -0.70722,1.579382 -1.57938,1.579382"
           id="break"
           inkscape:connector-curvature="0" />
        <rect
           width="5"
           height="0%"
           style="fill:#e60012"
           transform="translate(289)"
           id="line-reveal"
           x="0"
           y="0" />
      </g>
      <g
         id="Group-9">
        <path
           d="M 218.63691,67.984124 H 32.968866 C 17.290516,68.045979 7.7668041,57.522268 7.7668041,44.610928 c 0,-12.913402 9.5814429,-23.34433 25.2020619,-23.379382 H 218.63691 c 15.61443,0.03505 25.19587,10.46598 25.19587,23.379382 0,12.91134 -9.52165,23.435051 -25.19587,23.373196 z m 0.0825,-54.37732 H 32.876083 C 13.210103,13.561443 -2.0618557e-4,27.701649 -2.0618557e-4,44.654227 -2.0618557e-4,61.604742 13.181237,75.582062 32.911134,75.590309 H 218.69051 c 19.73815,-0.0082 32.90722,-13.985567 32.90722,-30.942268 0,-16.946392 -13.20825,-31.086598 -32.87835,-31.041237 z m 9.79382,24.696907 c -2.01031,0 -3.63712,-1.620618 -3.63712,-3.618556 0,-2.012371 1.62681,-3.641238 3.63712,-3.641238 2.00412,0 3.63092,1.628867 3.63092,3.641238 0,1.997938 -1.6268,3.618556 -3.63092,3.618556 z m 0,-8.119587 c -2.48042,0 -4.5031,2.018556 -4.5031,4.501031 0,2.476288 2.02268,4.486598 4.5031,4.486598 2.47835,0 4.48247,-2.01031 4.48247,-4.486598 0,-2.482475 -2.00412,-4.501031 -4.48247,-4.501031 z m -0.0392,4.154639 h -0.59381 V 32.89134 h 0.52989 c 0.72578,0 1.0866,0.226804 1.0866,0.74433 0,0.496907 -0.33196,0.703093 -1.02268,0.703093 z m 2.2701,-0.775258 c 0,-0.954639 -0.70309,-1.439175 -2.11752,-1.439175 h -1.95464 v 4.979381 h 1.20825 v -2.032989 h 0.59381 l 0.95258,2.032989 h 1.34639 l -1.11546,-2.218556 c 0.68659,-0.181444 1.08659,-0.668042 1.08659,-1.32165 z m -103.77319,9.12165 c 0.68866,-1.193815 1.94433,-1.75464 3.08453,-1.767011 1.14433,0.01237 2.4,0.573196 3.09279,1.767011 0.55051,0.977319 0.57938,2.115464 0.56495,3.810309 h -7.32165 c -0.0124,-1.694845 0.0206,-2.83299 0.57938,-3.810309 z m 15.9567,6.835051 c 0,-6.020618 -5.81237,-11.002062 -12.95258,-11.002062 -7.12989,0 -12.91959,4.872165 -12.91959,10.892784 0,6.016495 5.7897,10.892783 12.91959,10.892783 5.92577,0 10.9299,-3.381443 12.45567,-7.956701 l -8.75051,0.0062 c 0,0 0.0124,0.08247 0.0124,1.173196 0,3.550515 -2.33815,4.331958 -3.63712,4.331958 -1.29897,0 -3.66804,-0.781443 -3.66804,-4.331958 0,-1.061856 0.0103,-4.006186 0.0103,-4.006186 0,0 16.5299,0.0082 16.5299,0 z m 18.36701,-10.682474 c -2.90928,0.08454 -5.32165,1.329897 -7.00206,2.927835 -0.0124,-0.484536 0,-2.041237 0,-2.041237 l -8.70516,0.0082 -0.006,19.395877 h 8.71134 c 0,0 -0.0124,-11.913402 -0.0124,-12.740207 0,-1.688659 1.78144,-3.571134 4.17113,-3.571134 2.38763,0 4.00619,1.882475 4.00619,3.571134 v 12.740207 h 8.71958 c 0,0 -0.0103,-9.187629 0,-10.552578 0.0433,-7.682474 -6.60618,-9.830928 -9.88247,-9.738144 z m -71.311341,0 c -2.907217,0.08454 -5.317526,1.329897 -7,2.929897 -0.01237,-0.486598 0,-2.043299 0,-2.043299 l -8.719588,0.0082 0.01237,19.397939 h 8.707217 c 0,0 -0.01237,-11.915464 -0.01237,-12.742269 0,-1.688659 1.779381,-3.571134 4.164948,-3.571134 2.389691,0 4.008248,1.882475 4.008248,3.571134 v 12.742269 h 8.725773 c 0,0 -0.0082,-9.187629 0,-10.55464 0.04742,-7.682474 -6.608247,-9.830928 -9.886598,-9.738144 z M 190.15649,49.338763 v 3.445361 c 0,2.995876 -2.07422,3.773196 -3.44123,3.773196 -1.39588,0 -3.43712,-0.77732 -3.43712,-3.773196 v -3.45567 -3.459794 c 0,-3.006186 2.04124,-3.764949 3.43712,-3.764949 1.36701,0 3.43711,0.758763 3.43711,3.764949 0,1.030928 0.004,3.470103 0.004,3.470103 z m -0.066,-8.647423 c -1.4,-0.783505 -2.88041,-1.548453 -4.96288,-1.729897 -6.32784,-0.554639 -11.15258,5.037114 -11.15258,10.160825 0,6.750515 5.20619,9.249485 5.99588,9.618557 2.96082,1.379381 6.7402,1.383505 10.09897,-0.725774 0,0.181444 0.002,1.119588 0.002,1.119588 h 8.67216 V 29.959381 h -8.65361 z m 27.85361,12.696907 c 0,3.092784 -1.82474,4.364949 -3.57938,4.364949 -1.76082,0 -3.59175,-1.272165 -3.59175,-4.364949 v -4.183505 c 0,0 0.002,-2.874227 0.002,-4.041237 0,-3.082474 1.83505,-4.356701 3.58969,-4.356701 1.74639,0 3.57938,1.274227 3.57938,4.356701 0,1.16701 0,3.346392 0.0144,4.12165 0,0.05361 -0.0144,2.93402 -0.0144,4.103092 z M 214.43278,38.41299 c -7.08247,0 -12.82886,4.872165 -12.82886,10.886598 0,6.02268 5.74639,10.894845 12.82886,10.894845 7.08248,0 12.82062,-4.872165 12.82062,-10.894845 0,-6.014433 -5.73814,-10.886598 -12.82062,-10.886598 z M 60.643093,35.914021 h 8.793814 V 29.94701 h -8.793814 z m 0.02268,23.226804 h 8.771134 V 39.738763 l -8.771134,-0.0062 z M 118.22041,39.771753 v -2.882475 h -4.7567 v -3.927835 h -8.77938 l 0.008,3.929897 h -4.77526 v 2.880413 h 4.77113 l -0.004,19.369072 h 8.79588 l -0.0165,-19.369072 z M 46.632784,50.305773 34.049278,29.959381 H 24.96268 l -0.0041,29.181444 h 9.035051 V 38.792371 l 12.641237,20.348454 h 9.012371 V 29.959381 h -9.030927 z"
           id="racetrack"
           inkscape:connector-curvature="0" />
      </g>
    </g>
  </g>
  <text
     xml:space="preserve"
     style="font-style:normal;font-weight:normal;font-size:32.59522629px;line-height:20.37201691px;font-family:Sans;letter-spacing:0px;word-spacing:0px;fill:#ffffff;fill-opacity:1;stroke:none;stroke-width:0.81488067px;stroke-linecap:butt;stroke-linejoin:miter;stroke-opacity:1"
     x="596.28729"
     y="63.674824"
     id="text3766"
     transform="scale(1.0576376,0.94550349)"><tspan
       sodipodi:role="line"
       id="tspan3764"
       x="596.28729"
       y="63.674824"
       style="stroke-width:0.81488067px">.</tspan></text>
</svg>
